<svg id="visual" viewBox="0 0 1920 1080" width="1920" height="1080" xmlns="http://www.w3.org/2000/svg" xmlns:xlink="http://www.w3.org/1999/xlink" version="1.1"><rect x="0" y="0" width="1920" height="1080" fill="#1F306E"></rect><path d="M0 796L45.7 780.3C91.3 764.7 182.7 733.3 274.2 718C365.7 702.7 457.3 703.3 548.8 716C640.3 728.7 731.7 753.3 823 744C914.3 734.7 1005.7 691.3 1097 698.3C1188.3 705.3 1279.7 762.7 1371.2 764C1462.7 765.3 1554.3 710.7 1645.8 688.5C1737.3 666.3 1828.7 676.7 1874.3 681.8L1920 687L1920 1081L1874.3 1081C1828.7 1081 1737.3 1081 1645.8 1081C1554.3 1081 1462.7 1081 1371.2 1081C1279.7 1081 1188.3 1081 1097 1081C1005.7 1081 914.3 1081 823 1081C731.7 1081 640.3 1081 548.8 1081C457.3 1081 365.7 1081 274.2 1081C182.7 1081 91.3 1081 45.7 1081L0 1081Z" fill="#ffcedd"></path><path d="M0 790L45.7 779.8C91.3 769.7 182.7 749.3 274.2 739.5C365.7 729.7 457.3 730.3 548.8 747.8C640.3 765.3 731.7 799.7 823 820.5C914.3 841.3 1005.7 848.7 1097 831.3C1188.3 814 1279.7 772 1371.2 767.7C1462.7 763.3 1554.3 796.7 1645.8 814.7C1737.3 832.7 1828.7 835.3 1874.3 836.7L1920 838L1920 1081L1874.3 1081C1828.7 1081 1737.3 1081 1645.8 1081C1554.3 1081 1462.7 1081 1371.2 1081C1279.7 1081 1188.3 1081 1097 1081C1005.7 1081 914.3 1081 823 1081C731.7 1081 640.3 1081 548.8 1081C457.3 1081 365.7 1081 274.2 1081C182.7 1081 91.3 1081 45.7 1081L0 1081Z" fill="#ffa6c0"></path><path d="M0 930L45.7 918.2C91.3 906.3 182.7 882.7 274.2 883C365.7 883.3 457.3 907.7 548.8 904.7C640.3 901.7 731.7 871.3 823 871.3C914.3 871.3 1005.7 901.7 1097 913.2C1188.3 924.7 1279.7 917.3 1371.2 903.2C1462.7 889 1554.3 868 1645.8 854.7C1737.3 841.3 1828.7 835.7 1874.3 832.8L1920 830L1920 1081L1874.3 1081C1828.7 1081 1737.3 1081 1645.8 1081C1554.3 1081 1462.7 1081 1371.2 1081C1279.7 1081 1188.3 1081 1097 1081C1005.7 1081 914.3 1081 823 1081C731.7 1081 640.3 1081 548.8 1081C457.3 1081 365.7 1081 274.2 1081C182.7 1081 91.3 1081 45.7 1081L0 1081Z" fill="#fc7ba0"></path><path d="M0 918L45.7 931.8C91.3 945.7 182.7 973.3 274.2 988.3C365.7 1003.3 457.3 1005.7 548.8 996.2C640.3 986.7 731.7 965.3 823 950.5C914.3 935.7 1005.7 927.3 1097 927.5C1188.3 927.7 1279.7 936.3 1371.2 941.2C1462.7 946 1554.3 947 1645.8 957.5C1737.3 968 1828.7 988 1874.3 998L1920 1008L1920 1081L1874.3 1081C1828.7 1081 1737.3 1081 1645.8 1081C1554.3 1081 1462.7 1081 1371.2 1081C1279.7 1081 1188.3 1081 1097 1081C1005.7 1081 914.3 1081 823 1081C731.7 1081 640.3 1081 548.8 1081C457.3 1081 365.7 1081 274.2 1081C182.7 1081 91.3 1081 45.7 1081L0 1081Z" fill="#f5477e"></path></svg>