<svg id="visual" viewBox="0 0 1920 1080" width="1920" height="1080" xmlns="http://www.w3.org/2000/svg" xmlns:xlink="http://www.w3.org/1999/xlink" version="1.1"><rect x="0" y="0" width="1920" height="1080" fill="#1F306E"></rect><path d="M0 868L45.7 857.3C91.3 846.7 182.7 825.3 274.2 841.5C365.7 857.7 457.3 911.3 548.8 918.5C640.3 925.7 731.7 886.3 823 886.3C914.3 886.3 1005.7 925.7 1097 930.3C1188.3 935 1279.7 905 1371.2 875C1462.7 845 1554.3 815 1645.8 812.3C1737.3 809.7 1828.7 834.3 1874.3 846.7L1920 859L1920 1081L1874.3 1081C1828.7 1081 1737.3 1081 1645.8 1081C1554.3 1081 1462.7 1081 1371.2 1081C1279.7 1081 1188.3 1081 1097 1081C1005.7 1081 914.3 1081 823 1081C731.7 1081 640.3 1081 548.8 1081C457.3 1081 365.7 1081 274.2 1081C182.7 1081 91.3 1081 45.7 1081L0 1081Z" fill="#fafafa" stroke-linecap="round" stroke-linejoin="miter"></path></svg>