<svg id="visual" viewBox="0 0 1920 1080" width="1920" height="1080" xmlns="http://www.w3.org/2000/svg" xmlns:xlink="http://www.w3.org/1999/xlink" version="1.1"><rect x="0" y="0" width="1920" height="1080" fill="#1e2f6b"></rect><path d="M205 0L230 25.7C255 51.3 305 102.7 327 154.2C349 205.7 343 257.3 329.8 308.8C316.7 360.3 296.3 411.7 274.7 463C253 514.3 230 565.7 236.2 617C242.3 668.3 277.7 719.7 298.5 771.2C319.3 822.7 325.7 874.3 330.5 925.8C335.3 977.3 338.7 1028.7 340.3 1054.3L342 1080L0 1080L0 1054.3C0 1028.7 0 977.3 0 925.8C0 874.3 0 822.7 0 771.2C0 719.7 0 668.3 0 617C0 565.7 0 514.3 0 463C0 411.7 0 360.3 0 308.8C0 257.3 0 205.7 0 154.2C0 102.7 0 51.3 0 25.7L0 0Z" fill="#fafafa" stroke-linecap="round" stroke-linejoin="miter"></path></svg>