<svg id="visual" viewBox="0 0 1920 1080" width="1920" height="1080" xmlns="http://www.w3.org/2000/svg" xmlns:xlink="http://www.w3.org/1999/xlink" version="1.1"><rect x="0" y="0" width="1920" height="1080" fill="#1e2f6b"></rect><path d="M1717 1080L1692 1054.3C1667 1028.7 1617 977.3 1595 925.8C1573 874.3 1579 822.7 1592.2 771.2C1605.3 719.7 1625.7 668.3 1647.3 617C1669 565.7 1692 514.3 1685.8 463C1679.7 411.7 1644.3 360.3 1623.5 308.8C1602.7 257.3 1596.3 205.7 1591.5 154.2C1586.7 102.7 1583.3 51.3 1581.7 25.7L1580 0L1920 0L1920 25.7C1920 51.3 1920 102.7 1920 154.2C1920 205.7 1920 257.3 1920 308.8C1920 360.3 1920 411.7 1920 463C1920 514.3 1920 565.7 1920 617C1920 668.3 1920 719.7 1920 771.2C1920 822.7 1920 874.3 1920 925.8C1920 977.3 1920 1028.7 1920 1054.3L1920 1080Z" fill="#fafafa" stroke-linecap="round" stroke-linejoin="miter"></path></svg>