<svg id="visual" viewBox="0 0 960 540" width="960" height="540" xmlns="http://www.w3.org/2000/svg" xmlns:xlink="http://www.w3.org/1999/xlink" version="1.1"><rect x="0" y="0" width="960" height="540" fill="#1F306E"></rect><path d="M0 342L22.8 347.2C45.7 352.3 91.3 362.7 137 361.8C182.7 361 228.3 349 274 346.5C319.7 344 365.3 351 411.2 358.7C457 366.3 503 374.7 548.8 371.7C594.7 368.7 640.3 354.3 686 346.3C731.7 338.3 777.3 336.7 823 337.7C868.7 338.7 914.3 342.3 937.2 344.2L960 346L960 541L937.2 541C914.3 541 868.7 541 823 541C777.3 541 731.7 541 686 541C640.3 541 594.7 541 548.8 541C503 541 457 541 411.2 541C365.3 541 319.7 541 274 541C228.3 541 182.7 541 137 541C91.3 541 45.7 541 22.8 541L0 541Z" fill="#ffcedd"></path><path d="M0 364L22.8 370.5C45.7 377 91.3 390 137 393.5C182.7 397 228.3 391 274 388.3C319.7 385.7 365.3 386.3 411.2 383.3C457 380.3 503 373.7 548.8 374.2C594.7 374.7 640.3 382.3 686 385.8C731.7 389.3 777.3 388.7 823 392.2C868.7 395.7 914.3 403.3 937.2 407.2L960 411L960 541L937.2 541C914.3 541 868.7 541 823 541C777.3 541 731.7 541 686 541C640.3 541 594.7 541 548.8 541C503 541 457 541 411.2 541C365.3 541 319.7 541 274 541C228.3 541 182.7 541 137 541C91.3 541 45.7 541 22.8 541L0 541Z" fill="#ffa6c0"></path><path d="M0 439L22.8 435.5C45.7 432 91.3 425 137 422.8C182.7 420.7 228.3 423.3 274 426.3C319.7 429.3 365.3 432.7 411.2 434.2C457 435.7 503 435.3 548.8 438.8C594.7 442.3 640.3 449.7 686 449.7C731.7 449.7 777.3 442.3 823 443.3C868.7 444.3 914.3 453.7 937.2 458.3L960 463L960 541L937.2 541C914.3 541 868.7 541 823 541C777.3 541 731.7 541 686 541C640.3 541 594.7 541 548.8 541C503 541 457 541 411.2 541C365.3 541 319.7 541 274 541C228.3 541 182.7 541 137 541C91.3 541 45.7 541 22.8 541L0 541Z" fill="#fc7ba0"></path><path d="M0 505L22.8 498.5C45.7 492 91.3 479 137 477.7C182.7 476.3 228.3 486.7 274 490.7C319.7 494.7 365.3 492.3 411.2 487.5C457 482.7 503 475.3 548.8 471.2C594.7 467 640.3 466 686 464.5C731.7 463 777.3 461 823 465C868.7 469 914.3 479 937.2 484L960 489L960 541L937.2 541C914.3 541 868.7 541 823 541C777.3 541 731.7 541 686 541C640.3 541 594.7 541 548.8 541C503 541 457 541 411.2 541C365.3 541 319.7 541 274 541C228.3 541 182.7 541 137 541C91.3 541 45.7 541 22.8 541L0 541Z" fill="#f5477e"></path></svg>